<svg xmlns="http://www.w3.org/2000/svg" xmlns:xlink="http://www.w3.org/1999/xlink" viewBox="0,0,255.99431,255.99431" width="48px" height="48px"><defs><linearGradient x1="12.686" y1="4.592" x2="35.58" y2="41.841" gradientUnits="userSpaceOnUse" id="color-1"><stop offset="0" stop-color="#33bef0"></stop><stop offset="1" stop-color="#0a85d9"></stop></linearGradient><radialGradient cx="24.00062" cy="15.40062" r="3.98833" gradientUnits="userSpaceOnUse" id="color-2"><stop offset="0.516" stop-color="#000000"></stop><stop offset="1" stop-color="#000000" stop-opacity="0"></stop></radialGradient></defs><g fill-opacity="0" fill="#dddddd" fill-rule="nonzero" stroke="none" stroke-width="1" stroke-linecap="butt" stroke-linejoin="miter" stroke-miterlimit="10" stroke-dasharray="" stroke-dashoffset="0" font-family="none" font-weight="none" font-size="none" text-anchor="none" style="mix-blend-mode: normal"><path d="M0,255.99431v-255.99431h255.99431v255.99431z" id="bgRectangle"></path></g><g fill="none" fill-rule="nonzero" stroke="none" stroke-width="1" stroke-linecap="butt" stroke-linejoin="miter" stroke-miterlimit="10" stroke-dasharray="" stroke-dashoffset="0" font-family="none" font-weight="none" font-size="none" text-anchor="none" style="mix-blend-mode: normal"><g transform="scale(5.33333,5.33333)"><path d="M42,8h-36c-1.105,0 -2,0.895 -2,2v26c0,1.105 0.895,2 2,2h8v7.998c0,0.891 1.077,1.337 1.707,0.707l8.705,-8.705h17.588c1.105,0 2,-0.895 2,-2v-26c0,-1.105 -0.895,-2 -2,-2z" fill="url(#color-1)"></path><path d="M22,34h4c0.552,0 1,-0.448 1,-1v-12c0,-0.552 -0.448,-1 -1,-1h-4c-0.552,0 -1,0.448 -1,1v12c0,0.552 0.448,1 1,1z" fill="#000000" opacity="0.05"></path><path d="M22.227,33.5h3.547c0.401,0 0.727,-0.325 0.727,-0.727v-11.546c0,-0.401 -0.325,-0.727 -0.727,-0.727h-3.547c-0.401,0 -0.727,0.325 -0.727,0.727v11.547c0,0.401 0.325,0.726 0.727,0.726z" fill="#000000" opacity="0.07"></path><ellipse cx="24" cy="15.402" rx="3.988" ry="3.609" fill="url(#color-2)" opacity="0.15"></ellipse><path d="M24,17.732c1.7,0 2.65,-1.068 2.65,-2.388c0,-1.32 -1.003,-2.344 -2.65,-2.344c-1.647,0 -2.65,1.024 -2.65,2.344c0,1.32 0.95,2.388 2.65,2.388z" fill="#ffffff"></path><rect x="22" y="21" width="4" height="12" fill="#ffffff"></rect></g></g></svg>